<?xml version="1.0" encoding="UTF-8"?>
<svg id="Layer_1" xmlns="http://www.w3.org/2000/svg" version="1.1" viewBox="0 0 316.56 75">
  <!-- Generator: Adobe Illustrator 30.1.0, SVG Export Plug-In . SVG Version: 2.1.1 Build 136)  -->
  <rect x="0" y="0" width="316.56" height="75" fill="#e3ff4f"/>
  <g>
    <path d="M59.857,53.627h-7.788v-24.523l-5.795,24.477v.047h-6.166v-.047l-5.841-24.477v24.523h-7.788V21.408h14l2.689,15.02,2.688-15.02h14v32.219Z" fill="#fb93f2"/>
    <path d="M93.229,39.441c0,8.205-6.675,14.881-14.834,14.881h-1.298c-8.159,0-14.834-6.676-14.834-14.881v-3.894c0-8.205,6.675-14.834,14.834-14.834h1.298c8.159,0,14.834,6.629,14.834,14.834v3.894ZM85.441,35.547c0-3.894-3.199-7.046-7.047-7.046h-1.298c-3.848,0-7.046,3.152-7.046,7.046v3.894c0,3.894,3.199,7.046,7.046,7.046h1.298c3.848,0,7.047-3.152,7.047-7.046v-3.894Z" fill="#fb93f2"/>
    <path d="M114.828,21.408h8.066l-7.649,32.219h-14.417l-7.649-32.219h8.02l5.795,24.384h2.086l5.749-24.384Z" fill="#fb93f2"/>
    <path d="M154.273,21.408v7.788h-20.768v4.404h19.239v7.788h-19.239v4.404h20.768v7.835h-28.602V21.408h28.602Z" fill="#fb93f2"/>
    <path d="M192.281,53.627h-7.788v-24.523l-5.795,24.477v.047h-6.166v-.047l-5.841-24.477v24.523h-7.788V21.408h14l2.689,15.02,2.688-15.02h14v32.219Z" fill="#fb93f2"/>
    <path d="M225.513,21.408v7.788h-20.768v4.404h19.239v7.788h-19.239v4.404h20.768v7.835h-28.602V21.408h28.602Z" fill="#fb93f2"/>
    <path d="M251.097,21.408h7.788v32.219h-11.311l-10.569-22.113v22.113h-7.788V21.408h11.311l10.569,22.112v-22.112Z" fill="#fb93f2"/>
    <path d="M272.418,53.627v-24.431h-9.828v-7.788h27.49v7.788h-9.828v24.431h-7.834Z" fill="#fb93f2"/>
  </g>
</svg>