<?xml version="1.0" encoding="UTF-8"?>
<svg id="Layer_1" xmlns="http://www.w3.org/2000/svg" version="1.1" viewBox="0 0 140.346 83.402">
  <!-- Generator: Adobe Illustrator 30.1.0, SVG Export Plug-In . SVG Version: 2.1.1 Build 136)  -->
  <rect width="140.346" height="83.402" fill="#e3ff4f"/>
  <g id="Logo">
    <path d="M40.565,39.872h-7.186v-22.63l-5.348,22.587v.043h-5.69v-.043l-5.39-22.587v22.63h-7.187V10.14h12.919l2.482,13.86,2.481-13.86h12.919v29.731Z" fill="#fb93f2"/>
    <path d="M72.43,26.781c0,7.572-6.16,13.732-13.689,13.732h-1.197c-7.529,0-13.689-6.16-13.689-13.732v-3.593c0-7.572,6.16-13.689,13.689-13.689h1.197c7.529,0,13.689,6.117,13.689,13.689v3.593ZM65.244,23.188c0-3.593-2.952-6.502-6.503-6.502h-1.197c-3.55,0-6.502,2.909-6.502,6.502v3.593c0,3.593,2.952,6.502,6.502,6.502h1.197c3.551,0,6.503-2.909,6.503-6.502v-3.593Z" fill="#fb93f2"/>
    <path d="M93.003,10.14h7.443l-7.058,29.731h-13.304l-7.058-29.731h7.401l5.347,22.501h1.925l5.305-22.501Z" fill="#fb93f2"/>
    <path d="M130.259,10.14v7.187h-19.165v4.064h17.753v7.187h-17.753v4.064h19.165v7.23h-26.394V10.14h26.394Z" fill="#fb93f2"/>
    <path d="M40.333,73.262h-7.186v-22.63l-5.348,22.587v.043h-5.69v-.043l-5.39-22.587v22.63h-7.187v-29.731h12.919l2.482,13.86,2.481-13.86h12.919v29.731Z" fill="#fb93f2"/>
    <path d="M71,43.53v7.187h-19.165v4.064h17.753v7.187h-17.753v4.064h19.165v7.23h-26.394v-29.731h26.394Z" fill="#fb93f2"/>
    <path d="M94.609,43.53h7.187v29.731h-10.438l-9.753-20.406v20.406h-7.187v-29.731h10.438l9.753,20.405v-20.405Z" fill="#fb93f2"/>
    <path d="M114.283,73.262v-22.544h-9.069v-7.187h25.368v7.187h-9.069v22.544h-7.229Z" fill="#fb93f2"/>
  </g>
</svg>